<svg width="102" height="44" viewBox="0 0 102 44" fill="none" xmlns="http://www.w3.org/2000/svg">
<path d="M14.9219 8.5625V37H9.57031V8.5625H14.9219ZM23.75 8.5625V12.8008H0.839844V8.5625H23.75ZM22.9688 26.6484V26.2383C22.9688 24.6888 23.1901 23.263 23.6328 21.9609C24.0755 20.6458 24.7201 19.5065 25.5664 18.543C26.4128 17.5794 27.4479 16.8307 28.6719 16.2969C29.8958 15.75 31.2891 15.4766 32.8516 15.4766C34.4401 15.4766 35.8464 15.75 37.0703 16.2969C38.3073 16.8307 39.349 17.5794 40.1953 18.543C41.0417 19.5065 41.6862 20.6458 42.1289 21.9609C42.5716 23.263 42.793 24.6888 42.793 26.2383V26.6484C42.793 28.1849 42.5716 29.6107 42.1289 30.9258C41.6862 32.2279 41.0417 33.3672 40.1953 34.3438C39.349 35.3073 38.3138 36.056 37.0898 36.5898C35.8659 37.1237 34.4661 37.3906 32.8906 37.3906C31.3281 37.3906 29.9284 37.1237 28.6914 36.5898C27.4544 36.056 26.4128 35.3073 25.5664 34.3438C24.7201 33.3672 24.0755 32.2279 23.6328 30.9258C23.1901 29.6107 22.9688 28.1849 22.9688 26.6484ZM28.125 26.2383V26.6484C28.125 27.5729 28.2161 28.4388 28.3984 29.2461C28.5807 30.0534 28.8607 30.763 29.2383 31.375C29.6159 31.987 30.1042 32.4688 30.7031 32.8203C31.3151 33.1589 32.0443 33.3281 32.8906 33.3281C33.724 33.3281 34.4401 33.1589 35.0391 32.8203C35.638 32.4688 36.1263 31.987 36.5039 31.375C36.8945 30.763 37.181 30.0534 37.3633 29.2461C37.5456 28.4388 37.6367 27.5729 37.6367 26.6484V26.2383C37.6367 25.3268 37.5456 24.474 37.3633 23.6797C37.181 22.8724 36.8945 22.1628 36.5039 21.5508C36.1263 20.9258 35.6315 20.4375 35.0195 20.0859C34.4206 19.7214 33.6979 19.5391 32.8516 19.5391C32.0182 19.5391 31.3021 19.7214 30.7031 20.0859C30.1042 20.4375 29.6159 20.9258 29.2383 21.5508C28.8607 22.1628 28.5807 22.8724 28.3984 23.6797C28.2161 24.474 28.125 25.3268 28.125 26.2383ZM59.2188 32.5078V7H64.4141V37H59.7266L59.2188 32.5078ZM45.6445 26.6875V26.2773C45.6445 24.6628 45.8268 23.1979 46.1914 21.8828C46.569 20.5547 47.1159 19.4154 47.832 18.4648C48.5482 17.5143 49.4141 16.7786 50.4297 16.2578C51.4583 15.737 52.6237 15.4766 53.9258 15.4766C55.1888 15.4766 56.2891 15.7305 57.2266 16.2383C58.1771 16.7461 58.9844 17.4688 59.6484 18.4062C60.3255 19.3438 60.8659 20.457 61.2695 21.7461C61.6732 23.0221 61.9661 24.4284 62.1484 25.9648V27.0781C61.9661 28.5755 61.6732 29.9492 61.2695 31.1992C60.8659 32.4492 60.3255 33.543 59.6484 34.4805C58.9844 35.4049 58.1771 36.1211 57.2266 36.6289C56.276 37.1367 55.1628 37.3906 53.8867 37.3906C52.5977 37.3906 51.4388 37.1237 50.4102 36.5898C49.3945 36.056 48.5286 35.3073 47.8125 34.3438C47.1094 33.3802 46.569 32.2474 46.1914 30.9453C45.8268 29.6432 45.6445 28.224 45.6445 26.6875ZM50.8203 26.2773V26.6875C50.8203 27.599 50.8984 28.4518 51.0547 29.2461C51.2109 30.0404 51.4648 30.7435 51.8164 31.3555C52.168 31.9544 52.6172 32.4232 53.1641 32.7617C53.724 33.1003 54.401 33.2695 55.1953 33.2695C56.2109 33.2695 57.0443 33.0482 57.6953 32.6055C58.3594 32.1497 58.8737 31.5312 59.2383 30.75C59.6029 29.9557 59.8372 29.0638 59.9414 28.0742V25.0078C59.8893 24.2266 59.7526 23.5039 59.5312 22.8398C59.3229 22.1758 59.0234 21.6029 58.6328 21.1211C58.2552 20.6393 57.7865 20.2617 57.2266 19.9883C56.6667 19.7148 56.0026 19.5781 55.2344 19.5781C54.4401 19.5781 53.763 19.7539 53.2031 20.1055C52.6432 20.444 52.1875 20.9193 51.8359 21.5312C51.4844 22.1432 51.224 22.8529 51.0547 23.6602C50.8984 24.4674 50.8203 25.3398 50.8203 26.2773ZM68.1641 26.6484V26.2383C68.1641 24.6888 68.3854 23.263 68.8281 21.9609C69.2708 20.6458 69.9154 19.5065 70.7617 18.543C71.6081 17.5794 72.6432 16.8307 73.8672 16.2969C75.0911 15.75 76.4844 15.4766 78.0469 15.4766C79.6354 15.4766 81.0417 15.75 82.2656 16.2969C83.5026 16.8307 84.5443 17.5794 85.3906 18.543C86.237 19.5065 86.8815 20.6458 87.3242 21.9609C87.7669 23.263 87.9883 24.6888 87.9883 26.2383V26.6484C87.9883 28.1849 87.7669 29.6107 87.3242 30.9258C86.8815 32.2279 86.237 33.3672 85.3906 34.3438C84.5443 35.3073 83.5091 36.056 82.2852 36.5898C81.0612 37.1237 79.6615 37.3906 78.0859 37.3906C76.5234 37.3906 75.1237 37.1237 73.8867 36.5898C72.6497 36.056 71.6081 35.3073 70.7617 34.3438C69.9154 33.3672 69.2708 32.2279 68.8281 30.9258C68.3854 29.6107 68.1641 28.1849 68.1641 26.6484ZM73.3203 26.2383V26.6484C73.3203 27.5729 73.4115 28.4388 73.5938 29.2461C73.776 30.0534 74.056 30.763 74.4336 31.375C74.8112 31.987 75.2995 32.4688 75.8984 32.8203C76.5104 33.1589 77.2396 33.3281 78.0859 33.3281C78.9193 33.3281 79.6354 33.1589 80.2344 32.8203C80.8333 32.4688 81.3216 31.987 81.6992 31.375C82.0898 30.763 82.3763 30.0534 82.5586 29.2461C82.7409 28.4388 82.832 27.5729 82.832 26.6484V26.2383C82.832 25.3268 82.7409 24.474 82.5586 23.6797C82.3763 22.8724 82.0898 22.1628 81.6992 21.5508C81.3216 20.9258 80.8268 20.4375 80.2148 20.0859C79.6159 19.7214 78.8932 19.5391 78.0469 19.5391C77.2135 19.5391 76.4974 19.7214 75.8984 20.0859C75.2995 20.4375 74.8112 20.9258 74.4336 21.5508C74.056 22.1628 73.776 22.8724 73.5938 23.6797C73.4115 24.474 73.3203 25.3268 73.3203 26.2383Z" fill="black"/>
<path d="M26 42L40 42" stroke="black" stroke-width="4" stroke-linecap="round"/>
</svg>
